<svg height="512" viewBox="0 0 64 64" width="512" xmlns="http://www.w3.org/2000/svg"><g id="_24-Crowns" data-name="24-Crowns"><rect fill="#fadf7d" height="6" rx="2" width="42" x="11" y="48"/><path d="m51 52h-38a2.006 2.006 0 0 1 -2-2v2a2.006 2.006 0 0 0 2 2h38a2.006 2.006 0 0 0 2-2v-2a2.006 2.006 0 0 1 -2 2z" fill="#ffbf40"/><g fill="#ffc608"><path d="m7.19 21.35a4 4 0 1 1 1.81-3.35 4 4 0 0 1 -1.81 3.35z"/><path d="m34.03 17.44a3.959 3.959 0 0 1 -4.06 0 4 4 0 1 1 4.06 0z"/><path d="m59 22a4 4 0 1 1 4-4 4 4 0 0 1 -4 4z"/></g><path d="m48 22.82a2.772 2.772 0 0 1 -1 .18 2.944 2.944 0 0 1 -1.26-.28 3.007 3.007 0 1 1 2.26.1z" fill="#ff9c00"/><path d="m18.26 22.72a2.944 2.944 0 0 1 -1.26.28 2.772 2.772 0 0 1 -1-.18 2.992 2.992 0 1 1 2.26-.1z" fill="#ff9c00"/><path d="m25.74 34.78c-1.21 1.93-2.76 3.22-4.74 3.22-1.44 0-3.21-1.41-5-3.42v-11.76a2.772 2.772 0 0 0 1 .18 2.944 2.944 0 0 0 1.26-.28c.81 2.17 3.48 8.68 7.48 12.06z" fill="#fa0"/><path d="m48 22.82v11.76c-1.79 2.01-3.56 3.42-5 3.42-1.98 0-3.53-1.29-4.74-3.22 4-3.38 6.67-9.89 7.48-12.06a2.944 2.944 0 0 0 1.26.28 2.772 2.772 0 0 0 1-.18z" fill="#fa0"/><path d="m34.07 44.78a1.078 1.078 0 0 0 1.71-1.06l-.53-2.58 1.41-1.38a1.029 1.029 0 0 0 -.72-1.76h-1.95l-1.02-2.4a1.084 1.084 0 0 0 -1.94 0l-1.02 2.4h-1.95a1.029 1.029 0 0 0 -.72 1.76l1.41 1.38-.53 2.58a1.078 1.078 0 0 0 1.71 1.06l2.07-1.52zm13.93-10.2c3.9-4.36 7.91-11.57 8.81-13.23a4 4 0 0 0 2.19.65l-8 22v4h-38v-4l-8-22a4 4 0 0 0 2.19-.65c.9 1.66 4.91 8.87 8.81 13.23 1.79 2.01 3.56 3.42 5 3.42 1.98 0 3.53-1.29 4.74-3.22 3.27-5.21 4.09-15.14 4.23-17.34a3.959 3.959 0 0 0 4.06 0c.14 2.2.96 12.13 4.23 17.34 1.21 1.93 2.76 3.22 4.74 3.22 1.44 0 3.21-1.41 5-3.42z" fill="#fadf7d"/><path d="m32.97 35.6 1.02 2.4h1.95a1.029 1.029 0 0 1 .72 1.76l-1.41 1.38.53 2.58a1.078 1.078 0 0 1 -1.71 1.06l-2.07-1.52-2.07 1.52a1.078 1.078 0 0 1 -1.71-1.06l.53-2.58-1.41-1.38a1.029 1.029 0 0 1 .72-1.76h1.95l1.02-2.4a1.084 1.084 0 0 1 1.94 0z" fill="#d1013e"/><path d="m34.03 15.44a3.959 3.959 0 0 1 -4.06 0 3.974 3.974 0 0 1 -1.836-2.417 3.919 3.919 0 0 0 1.836 4.417 3.959 3.959 0 0 0 4.06 0 3.919 3.919 0 0 0 1.836-4.417 3.974 3.974 0 0 1 -1.836 2.417z" fill="#fa0"/><path d="m61.03 19.44a3.959 3.959 0 0 1 -4.06 0 3.974 3.974 0 0 1 -1.836-2.417 3.919 3.919 0 0 0 1.836 4.417 3.959 3.959 0 0 0 4.06 0 3.919 3.919 0 0 0 1.836-4.417 3.974 3.974 0 0 1 -1.836 2.417z" fill="#fa0"/><path d="m7.03 19.44a3.959 3.959 0 0 1 -4.06 0 3.974 3.974 0 0 1 -1.836-2.417 3.919 3.919 0 0 0 1.836 4.417 3.959 3.959 0 0 0 4.06 0 3.919 3.919 0 0 0 1.836-4.417 3.974 3.974 0 0 1 -1.836 2.417z" fill="#fa0"/><path d="m18.26 20.72a2.944 2.944 0 0 1 -1.26.28 2.772 2.772 0 0 1 -1-.18 2.956 2.956 0 0 1 -1.821-1.808 3 3 0 0 0 -.179.988 2.968 2.968 0 0 0 2 2.82 2.772 2.772 0 0 0 1 .18 2.944 2.944 0 0 0 1.26-.28 2.957 2.957 0 0 0 1.56-3.711 2.975 2.975 0 0 1 -1.56 1.711z" fill="#de8800"/><path d="m48.26 20.72a2.944 2.944 0 0 1 -1.26.28 2.772 2.772 0 0 1 -1-.18 2.956 2.956 0 0 1 -1.821-1.808 3 3 0 0 0 -.179.988 2.968 2.968 0 0 0 2 2.82 2.772 2.772 0 0 0 1 .18 2.944 2.944 0 0 0 1.26-.28 2.957 2.957 0 0 0 1.56-3.711 2.975 2.975 0 0 1 -1.56 1.711z" fill="#de8800"/><path d="m18.014 34.66a1.992 1.992 0 0 1 -1.014-1.742v-5.918a2 2 0 0 1 2-2h.189c-.417-.948-.73-1.746-.929-2.28a2.944 2.944 0 0 1 -1.26.28 2.772 2.772 0 0 1 -1-.18v11.76c1.79 2.01 3.56 3.42 5 3.42 1.98 0 3.53-1.29 4.74-3.22-.1-.087-.2-.184-.3-.275-2.768 2.227-5.867 1.032-7.426.155z" fill="#ff9c00"/><path d="m47 23a2.944 2.944 0 0 1 -1.26-.28c-.2.534-.512 1.332-.929 2.28h.189a2 2 0 0 1 2 2v5.918a1.992 1.992 0 0 1 -1.014 1.742c-1.559.877-4.655 2.065-7.42-.158-.1.092-.2.19-.306.278 1.21 1.93 2.76 3.22 4.74 3.22 1.44 0 3.21-1.41 5-3.42v-11.76a2.772 2.772 0 0 1 -1 .18z" fill="#ff9c00"/><path d="m34.07 44.78-1.062-.78h-2.016l-1.062.78a1.08 1.08 0 0 1 -1.723-.78h-9.207a3 3 0 0 1 -3-3l-8.223-15.532a1 1 0 0 1 .884-1.468h.025c-.706-1.211-1.235-2.168-1.5-2.65a4 4 0 0 1 -2.186.65l8 22v4h38v-4h-15.207a1.08 1.08 0 0 1 -1.723.78z" fill="#ffbf40"/><circle cx="48" cy="19" fill="#ffc608" r="1"/><circle cx="18" cy="19" fill="#ffc608" r="1"/><circle cx="33" cy="13" fill="#fffced" r="1"/><circle cx="61" cy="17" fill="#fffced" r="1"/><circle cx="7" cy="17" fill="#fffced" r="1"/><path d="m18 47h2v2h-2z"/><path d="m59.727 22.927a4.994 4.994 0 1 0 -4.185-1.327 86.339 86.339 0 0 1 -6.542 10.211v-8.367a4 4 0 1 0 -4.483-.333c-.936 2.35-3.06 7.065-6.021 10.077-2.179-4.314-3.156-11.253-3.438-15.261a5 5 0 1 0 -6.116 0c-.281 4.009-1.257 10.949-3.436 15.262-2.962-3.011-5.087-7.727-6.023-10.078a4 4 0 1 0 -4.483.333v8.367a86.339 86.339 0 0 1 -6.542-10.211 5 5 0 1 0 -4.185 1.331l7.727 21.245v3.008a3 3 0 0 0 -2 2.816v2a3 3 0 0 0 3 3h38a3 3 0 0 0 3-3v-2a3 3 0 0 0 -2-2.816v-3.008zm-.727-7.927a3 3 0 1 1 -3 3 3 3 0 0 1 3-3zm-12 3a2 2 0 1 1 -2 2 2 2 0 0 1 2-2zm-.653 5.934a4.014 4.014 0 0 0 .653.066v10.224c-1.539 1.685-2.95 2.776-4 2.776a4.368 4.368 0 0 1 -3.427-2.051c3.397-3.249 5.737-8.406 6.774-11.015zm-14.347-12.934a3 3 0 1 1 -3 3 3 3 0 0 1 3-3zm-15 7a2 2 0 1 1 -2 2 2 2 0 0 1 2-2zm0 6a4.014 4.014 0 0 0 .653-.066c1.037 2.609 3.378 7.765 6.776 11.016a4.373 4.373 0 0 1 -3.429 2.05c-1.05 0-2.461-1.091-4-2.776zm-15-6a3 3 0 1 1 3 3 3 3 0 0 1 -3-3zm50 34a1 1 0 0 1 -1 1h-38a1 1 0 0 1 -1-1v-2a1 1 0 0 1 1-1h3v-2h-2v-3a1 1 0 0 0 -.061-.342l-7.588-20.867c.138-.039.276-.077.409-.127a63.2 63.2 0 0 0 8.24 12.291v.045h.041c3.387 3.7 5.405 4 5.959 4 3.842 0 6.692-3.791 8.473-11.269a64.226 64.226 0 0 0 1.394-8.872 4.623 4.623 0 0 0 2.266 0 64.226 64.226 0 0 0 1.394 8.872c1.781 7.478 4.631 11.269 8.473 11.269.554 0 2.572-.3 5.959-4h.041v-.045a63.2 63.2 0 0 0 8.24-12.291c.133.05.271.088.409.127l-7.588 20.867a1 1 0 0 0 -.061.342v3h-28v2h29a1 1 0 0 1 1 1z"/><path d="m27.657 41.47-.419 2.054a2.043 2.043 0 0 0 .91 2.141 2.091 2.091 0 0 0 2.377-.075l1.475-1.085 1.476 1.085a2.086 2.086 0 0 0 2.376.075 2.043 2.043 0 0 0 .91-2.141l-.419-2.054 1.013-.994a2.028 2.028 0 0 0 -1.419-3.476h-1.286l-.79-1.857a2.087 2.087 0 0 0 -3.722 0l-.03.062-.761 1.795h-1.285a2.028 2.028 0 0 0 -1.419 3.476zm2.353-2.47a1 1 0 0 0 .921-.609l1.02-2.405h.1l1.02 2.405a1 1 0 0 0 .919.609l1.966.048-1.4 1.375a1 1 0 0 0 -.28.914l.5 2.643a.084.084 0 0 1 -.113 0l-2.067-1.521a1 1 0 0 0 -1.186 0l-2.066 1.521c-.018.012-.054.04-.144-.054l.529-2.588a1 1 0 0 0 -.28-.914l-1.386-1.424z"/></g></svg>